<?xml version="1.0" encoding="UTF-8" standalone="no" ?>
<!DOCTYPE svg PUBLIC "-//W3C//DTD SVG 1.1//EN" "http://www.w3.org/Graphics/SVG/1.1/DTD/svg11.dtd">
<svg xmlns="http://www.w3.org/2000/svg" xmlns:xlink="http://www.w3.org/1999/xlink" version="1.1" width="19.5555" height="32" viewBox="-7.859374990815127e-7 0 11.180001571874998 18.2946" xml:space="preserve">
<desc>Created with Fabric.js 4.6.0</desc>
<defs>
</defs>
<g transform="matrix(1 0 0 1 37.51 9.1)" id="41W_d71eVu-WygVCTyShz"  >
<path style="stroke: none; stroke-width: 1; stroke-dasharray: none; stroke-linecap: butt; stroke-dashoffset: 0; stroke-linejoin: miter; stroke-miterlimit: 4; fill: rgb(0,128,9); fill-rule: nonzero; opacity: 1;" vector-effect="non-scaling-stroke"  transform=" translate(-37.5, -9.5)" d="M 0 6.916 L 0 18.668 L 11.175 18.668 L 11.175 12.42 L 4.63 12.42 L 4.63 10.43 L 8.722 10.43 L 8.722 8.65 L 4.63 8.65 L 4.63 6.805 L 11.175 6.805 L 11.175 0.413 L 0 0.413 L 0 6.916 Z M 59.558 0.514 L 54.928 0.514 L 54.928 18.733999999999998 L 59.558 18.733999999999998 L 59.558 0.514 Z M 12.514 9.467 L 12.514 9.58 C 12.514 14.706 13.914 18.86 19.194 18.86 C 21.34 18.86 23.689 18.019 24.71 16.962 L 24.71 10.975999999999999 C 23.007 12.137999999999998 21.884 12.879 20.087 12.879 C 18.575 12.879 17.076 12.041 17.076 9.587 L 17.076 9.46 C 17.076 7.006 18.581 6.1690000000000005 20.086 6.1690000000000005 C 21.884 6.1690000000000005 23.006999999999998 6.909000000000001 24.709999999999997 8.071 L 24.709999999999997 2.084 C 23.69 1.027 21.34 0.185 19.194 0.185 C 13.913999999999998 0.185 12.514 4.340999999999999 12.514 9.467 Z M 48.281 8.858 C 47.803 8.708 47.497 8.608 46.515 8.281 C 45.838 8.056000000000001 45.27 7.814000000000001 45.235 7.258000000000001 C 45.187 6.5280000000000005 46.064 6.381000000000001 47.092999999999996 6.406000000000001 C 49.45099999999999 6.461 52.592999999999996 7.814 52.63699999999999 7.819000000000001 L 52.63699999999999 1.241 C 52.63699999999999 1.241 50.138 0.125 46.766 0.125 C 41.79 0.125 40.620999999999995 2.938 40.620999999999995 5.08 C 40.620999999999995 7.63 42.675999999999995 8.98 45.876999999999995 10.14 C 46.367999999999995 10.297 46.660999999999994 10.388 47.642999999999994 10.716000000000001 C 48.31999999999999 10.941 48.88799999999999 11.183000000000002 48.922999999999995 11.739 C 48.971 12.469000000000001 48.093999999999994 12.616000000000001 47.065 12.591000000000001 C 44.707 12.536000000000001 40.945 10.738000000000001 40.902 10.733 L 40.902 17.312 C 40.902 17.312 44.02 18.872 47.392 18.872 C 52.368 18.872 53.832 16.058 53.758 13.917 C 53.692 12.031 52.483000000000004 10.126999999999999 48.281000000000006 8.857 Z M 71.748 0.514 L 64.09 0.514 L 60.835 18.733999999999998 L 65.795 18.733999999999998 L 66.301 15.607999999999999 L 69.533 15.607999999999999 L 70.039 18.732999999999997 L 74.999 18.732999999999997 L 71.749 0.514 Z M 66.592 13.83 L 67.91799999999999 5.51 L 69.246 13.828 L 66.592 13.83 Z M 32.88 0.178 C 27.569000000000003 0.178 26.200000000000003 4.3629999999999995 26.200000000000003 9.525 C 26.200000000000003 14.687000000000001 27.569000000000003 18.872 32.88 18.872 C 38.193000000000005 18.872 39.56 14.687000000000001 39.56 9.525 C 39.56 4.364000000000001 38.193000000000005 0.17800000000000082 32.88 0.17800000000000082 Z M 35.317 9.530000000000001 C 35.317 11.48 34.6 13.062000000000001 32.884 13.062000000000001 C 31.167 13.062000000000001 30.561 11.481000000000002 30.560000000000002 9.530000000000001 L 30.560000000000002 9.520000000000001 C 30.560000000000002 7.570000000000001 31.167 5.988000000000001 32.884 5.988000000000001 C 34.6 5.988000000000001 35.316 7.569000000000001 35.317 9.520000000000001 L 35.317 9.530000000000001 Z" stroke-linecap="round" />
</g>
<g transform="matrix(1 0 0 1 17.88 4.81)" id="iSFrzxNT-UmVHta1zuVi5"  >
<path style="stroke: rgb(0,0,0); stroke-width: 1; stroke-dasharray: none; stroke-linecap: butt; stroke-dashoffset: 0; stroke-linejoin: miter; stroke-miterlimit: 4; fill: rgb(255,255,255); fill-opacity: 0; fill-rule: nonzero; opacity: 1;" vector-effect="non-scaling-stroke"  transform=" translate(0, 0)" d="M 0 0" stroke-linecap="round" />
</g>
</svg>